<?xml version="1.0" standalone="no"?>
<!DOCTYPE svg PUBLIC "-//W3C//DTD SVG 20010904//EN"
 "http://www.w3.org/TR/2001/REC-SVG-20010904/DTD/svg10.dtd">
<svg version="1.0" xmlns="http://www.w3.org/2000/svg"
 width="128.000000pt" height="128.000000pt" viewBox="0 0 128.000000 128.000000"
 preserveAspectRatio="xMidYMid meet">

<g transform="translate(0.000000,128.000000) scale(0.100000,-0.100000)"
fill="#000000" stroke="none">
<path d="M435 1241 l-30 -6 0 -380 c0 -371 1 -381 22 -421 12 -22 40 -57 62
-77 104 -94 279 -66 355 56 57 92 43 218 -32 289 -58 56 -90 67 -207 75 l-106
6 3 61 3 61 120 -1 c111 0 124 -2 174 -28 69 -35 150 -116 181 -181 20 -40 26
-69 28 -147 3 -87 1 -103 -22 -153 -69 -152 -182 -225 -347 -226 -68 0 -89 4
-144 29 -86 41 -148 100 -188 181 l-32 66 -3 362 c-1 200 -5 363 -9 363 -3 0
-25 -12 -49 -27 l-44 -28 0 -315 c0 -344 5 -386 58 -484 44 -82 129 -161 218
-203 78 -37 81 -38 199 -38 110 0 125 2 180 28 181 85 285 244 285 437 0 210
-129 383 -335 450 -22 7 -92 16 -155 19 l-115 6 -3 118 c-3 128 1 123 -67 108z
m265 -579 c74 -37 102 -129 59 -199 -27 -43 -66 -63 -123 -63 -50 0 -95 30
-121 81 -19 36 -21 185 -2 192 32 13 153 6 187 -11z"/>
</g>
</svg>
