<?xml version="1.0" standalone="no"?>
<!DOCTYPE svg PUBLIC "-//W3C//DTD SVG 20010904//EN"
 "http://www.w3.org/TR/2001/REC-SVG-20010904/DTD/svg10.dtd">
<svg version="1.0" xmlns="http://www.w3.org/2000/svg"
 width="28.000000pt" height="34.000000pt" viewBox="0 0 28.000000 34.000000"
 preserveAspectRatio="xMidYMid meet">
<metadata>
Created by potrace 1.16, written by Peter Selinger 2001-2019
</metadata>
<g transform="translate(0.000000,34.000000) scale(0.100000,-0.100000)"
fill="#000000" stroke="none">
<path d="M78 228 c-2 -59 1 -90 11 -108 8 -14 15 -26 15 -27 1 -1 13 -4 28 -8
29 -7 68 22 68 51 0 25 -57 73 -80 67 -16 -4 -20 0 -20 17 0 21 3 22 42 17 51
-7 87 -41 95 -90 5 -33 2 -40 -33 -73 -33 -30 -44 -35 -73 -30 -19 3 -46 17
-60 31 -24 24 -26 32 -25 121 0 63 -3 93 -10 91 -14 -5 -17 -129 -4 -175 19
-67 81 -101 147 -79 45 16 74 56 74 104 0 68 -41 108 -118 115 -24 2 -31 8
-33 31 -7 57 -21 24 -24 -55z"/>
</g>
</svg>
